<?xml version="1.0" standalone="no"?>
<!DOCTYPE svg PUBLIC "-//W3C//DTD SVG 20010904//EN"
 "http://www.w3.org/TR/2001/REC-SVG-20010904/DTD/svg10.dtd">
<svg version="1.0" xmlns="http://www.w3.org/2000/svg"
 width="148.000000pt" height="148.000000pt" viewBox="0 0 148.000000 148.000000"
 preserveAspectRatio="xMidYMid meet">
<metadata>
Created by potrace 1.11, written by Peter Selinger 2001-2013
</metadata>
<g transform="translate(0.000000,148.000000) scale(0.100000,-0.100000)"
fill="#000000" stroke="none">
<path d="M0 738 l0 -418 740 0 740 0 0 418 0 418 -740 0 -740 0 0 -418z m1414
10 c-1 -189 -2 -348 -3 -353 -1 -7 -227 -10 -663 -9 -365 1 -668 2 -673 3 -7
1 -10 123 -10 351 l0 350 675 0 675 0 -1 -342z"/>
<path d="M360 951 c0 -6 5 -11 10 -11 6 0 10 -16 10 -36 0 -23 4 -34 12 -32 6
2 11 22 11 44 0 32 -3 40 -21 42 -12 2 -22 -1 -22 -7z"/>
<path d="M231 894 c-12 -15 -21 -37 -21 -49 0 -27 36 -75 56 -75 21 0 17 10
-11 32 -14 11 -25 28 -25 39 0 11 11 31 25 45 29 29 30 34 11 34 -8 0 -24 -12
-35 -26z"/>
<path d="M290 914 c0 -3 11 -15 25 -26 14 -11 25 -30 25 -43 0 -13 -11 -32
-25 -43 -28 -22 -32 -32 -12 -32 24 0 57 45 57 76 0 32 -31 74 -55 74 -8 0
-15 -3 -15 -6z"/>
<path d="M440 913 c2 -21 38 -75 44 -65 8 13 -20 72 -34 72 -6 0 -10 -3 -10
-7z"/>
<path d="M485 830 c-49 -97 -50 -100 -35 -100 8 0 100 169 100 185 0 3 -4 5
-10 5 -5 0 -30 -40 -55 -90z"/>
<path d="M593 908 c-13 -17 -63 -120 -63 -130 0 -4 12 -8 26 -8 22 0 24 3 15
14 -10 11 -8 23 9 55 11 23 22 41 25 41 5 0 45 -75 45 -85 0 -3 -5 -4 -11 -2
-6 1 -14 -4 -16 -10 -3 -9 6 -13 26 -13 17 0 31 3 31 8 1 12 -65 142 -71 142
-4 0 -11 -6 -16 -12z"/>
<path d="M675 889 c-9 -17 -14 -38 -12 -47 3 -13 7 -11 17 10 15 33 25 29 45
-19 17 -41 18 -44 8 -40 -5 1 -10 -2 -13 -8 -3 -5 10 -11 28 -13 l33 -3 -21
43 c-61 125 -61 124 -85 77z"/>
<path d="M765 883 c-8 -20 -13 -38 -11 -41 8 -7 26 9 26 24 0 27 16 14 38 -31
12 -25 17 -45 12 -45 -6 0 -10 -4 -10 -10 0 -5 11 -10 25 -10 14 0 25 2 25 5
0 15 -72 145 -80 145 -5 0 -17 -16 -25 -37z"/>
<path d="M860 910 c0 -5 6 -10 14 -10 11 0 14 -15 14 -62 -1 -93 1 -108 12
-108 6 0 10 38 10 95 0 95 0 95 -25 95 -14 0 -25 -4 -25 -10z"/>
<path d="M927 913 c-15 -15 -5 -21 26 -16 64 10 91 -65 35 -97 -23 -12 -31
-13 -49 -2 -18 12 -20 11 -17 -5 2 -12 14 -19 35 -21 69 -7 109 80 60 126 -22
21 -76 30 -90 15z"/>
<path d="M1060 864 c0 -30 5 -64 10 -75 11 -20 60 -27 60 -9 0 6 -9 10 -19 10
-24 0 -31 19 -31 81 0 27 -4 49 -10 49 -5 0 -10 -25 -10 -56z"/>
<path d="M1140 845 c0 -43 4 -75 10 -75 6 0 10 32 10 75 0 43 -4 75 -10 75 -6
0 -10 -32 -10 -75z"/>
<path d="M1190 901 c-14 -26 -3 -49 31 -67 32 -16 35 -24 17 -42 -17 -17 -2
-28 17 -12 23 19 18 48 -12 67 -36 22 -45 35 -33 47 13 13 13 26 0 26 -5 0
-14 -9 -20 -19z"/>
<path d="M1230 916 c0 -2 7 -16 15 -32 12 -23 15 -25 21 -11 6 17 -11 47 -27
47 -5 0 -9 -2 -9 -4z"/>
<path d="M380 815 c0 -41 2 -45 25 -45 14 0 25 5 25 10 0 6 -7 10 -15 10 -9 0
-15 6 -14 13 4 29 -2 57 -11 57 -5 0 -10 -20 -10 -45z"/>
<path d="M1189 798 c4 -12 14 -24 21 -26 9 -3 11 1 7 12 -4 10 -7 22 -7 27 0
5 -7 9 -15 9 -11 0 -12 -6 -6 -22z"/>
<path d="M495 740 c-3 -5 1 -10 9 -10 12 0 16 -10 16 -35 0 -19 5 -35 10 -35
6 0 10 20 10 45 0 38 -3 45 -19 45 -11 0 -23 -4 -26 -10z"/>
<path d="M570 741 c0 -6 5 -11 10 -11 6 0 10 -16 10 -35 0 -21 5 -35 13 -35 8
0 12 15 12 43 -1 36 -4 42 -23 45 -12 2 -22 -1 -22 -7z"/>
<path d="M235 685 c-32 -31 -33 -77 -3 -105 23 -21 48 -27 48 -10 0 6 -4 10
-9 10 -17 0 -41 31 -41 51 0 11 11 30 25 43 14 13 25 26 25 30 0 14 -22 5 -45
-19z"/>
<path d="M292 698 c3 -7 15 -14 29 -16 23 -2 23 -2 5 13 -24 18 -39 20 -34 3z"/>
<path d="M390 697 c-35 -18 -50 -53 -38 -88 10 -28 34 -49 57 -49 20 0 11 17
-14 28 -36 16 -34 63 2 90 33 24 28 36 -7 19z"/>
<path d="M430 704 c0 -4 11 -17 25 -30 14 -13 25 -32 25 -43 0 -11 -11 -28
-25 -39 -28 -22 -32 -32 -12 -32 23 0 57 45 57 74 0 15 -10 37 -25 51 -23 24
-45 33 -45 19z"/>
<path d="M665 685 c-66 -65 25 -166 101 -111 28 21 11 30 -25 12 -29 -15 -31
-15 -58 9 l-28 24 68 1 c68 0 68 0 65 27 -2 14 -15 35 -30 46 -36 27 -49 14
-15 -14 15 -11 27 -24 27 -28 0 -5 -25 -8 -55 -8 -49 0 -53 1 -45 17 5 10 16
20 25 24 17 6 21 26 5 26 -6 0 -22 -11 -35 -25z"/>
<path d="M845 698 c-11 -6 -22 -12 -23 -14 -2 -1 -7 -18 -11 -37 -9 -37 6 -66
44 -84 28 -14 69 -1 73 22 3 16 1 18 -9 8 -17 -16 -61 -17 -77 -1 -13 13 -16
57 -4 74 12 18 50 26 72 14 22 -12 27 -1 8 18 -15 15 -47 15 -73 0z"/>
<path d="M939 678 c-1 -18 0 -49 1 -68 3 -80 -42 -121 -95 -86 -29 19 -36 1
-7 -20 27 -21 70 -17 97 11 23 22 25 32 25 110 0 50 -4 85 -10 85 -5 0 -10
-15 -11 -32z"/>
<path d="M995 685 c-14 -13 -25 -35 -25 -48 0 -29 35 -77 56 -77 20 0 17 8
-13 35 l-28 24 66 1 c36 0 68 3 72 6 11 12 -15 62 -39 73 -31 14 -34 14 -34 1
0 -6 8 -14 18 -17 16 -6 32 -22 32 -34 0 -3 -22 -5 -50 -5 -54 -1 -67 16 -30
36 11 6 20 15 20 20 0 17 -20 11 -45 -15z"/>
<path d="M520 606 c0 -45 15 -62 41 -46 11 7 10 10 -4 16 -11 4 -17 17 -17 40
0 19 -4 34 -10 34 -5 0 -10 -20 -10 -44z"/>
<path d="M590 606 c0 -45 15 -62 40 -46 10 6 10 9 -2 16 -7 5 -14 17 -15 27
-2 41 -4 47 -13 47 -5 0 -10 -20 -10 -44z"/>
<path d="M1233 603 c-7 -3 -13 -13 -13 -23 0 -19 17 -30 38 -23 6 3 12 13 12
23 0 19 -17 30 -37 23z"/>
<path d="M1073 586 c-28 -13 -30 -26 -5 -26 19 0 42 18 42 32 0 10 -9 9 -37
-6z"/>
<path d="M303 583 c-20 -7 -15 -23 6 -23 10 0 21 7 25 15 5 15 -7 18 -31 8z"/>
</g>
</svg>
